<svg id="Camada_1" data-name="Camada 1" xmlns="http://www.w3.org/2000/svg" viewBox="0 0 134.46 145.02"><defs><style>.cls-1{fill:#4e1110;}.cls-2{font-size:19.49px;font-family:VeganStylePersonalUse, Vegan Style Personal Use;}.cls-2,.cls-5{fill:#da9b49;}.cls-3{font-family:FreestyleScript-Regular, Freestyle Script;}.cls-4,.cls-6,.cls-9{fill:none;}.cls-4,.cls-7{stroke:#db9c4a;}.cls-4,.cls-7,.cls-9{stroke-miterlimit:10;}.cls-6,.cls-9{stroke:#dc9e4b;}.cls-6{stroke-linecap:round;stroke-linejoin:round;}.cls-7{fill:#dc9e4b;}.cls-8{fill:#dc9d4b;}</style></defs><title>Logo(SiteTurco)</title><path class="cls-1" d="M0,0H134.46a0,0,0,0,1,0,0V133.07a12,12,0,0,1-12,12H12a12,12,0,0,1-12-12V0A0,0,0,0,1,0,0Z"/><text class="cls-2" transform="translate(5.94 126.8)">Popina Orbi<tspan class="cls-3" x="106.05" y="0">’</tspan><tspan x="110.07" y="0">s</tspan></text><path class="cls-4" d="M94.83,12.5s-3.26,1.33,4.81,13.4c0,0,8.09,10.73,13.83,14.58,0,0,6.12,4.78,8.22,3.39"/><path class="cls-5" d="M111.65,24.21s1.41-3.08,2.86-.57l3.63,4.71L121,32.64s1.82,1.92,1.67,7.71l.11,21.27L123,80.16l5.42-3.63,3-2.06-1.8-32.92s-.94-11.17-3.52-13.2c0,0-3.12-4.44-6.05-6.33,0,0-2.78-2.7-4.26-3.05,0,0-3.31-1.17-4,2.77l-.71,2.65s-2,3.44-.59,6c0,0,2.41.82,1.72-3.91C112.22,26.5,112.32,26.3,111.65,24.21Z"/><path class="cls-4" d="M98.22,80.44,121.91,43.7c2.54-3.26-1.68-10.13-1.68-10.13s-5.46-7.47-7.5-10.48-9.06-8.35-9.06-8.35c-6.39-5.15-9.07-2-9.07-2L58.73,34.93"/><path class="cls-6" d="M71.63,65.1c1,1.13,3,.77,4.42-.79s1.74-3.73.72-4.86-3-.77-4.42.8S70.61,64,71.63,65.1Z"/><path class="cls-6" d="M89.69,66.25a8,8,0,0,1,1.06,1.4l.25,0A93,93,0,0,0,74.2,47.35c0,.48-.21,6.14-2.89,8,0,0-2.63-.28-2.71,3.08,0,0,1.92,4.91-3.24,2.89,0,0-2.68-3.27-4.62-2.5,0,0-6,1.5-6.52,5.51,0,0,9,6.32,8.34,13.73,0,0-1.58,2.21-2.71,1.35,0,0-2,6.25-5.63,6,0,0-7.06-2.11-8.19.77l-1.91,4c7.23,10.66,19.17,12.93,24.65,13.4a7,7,0,0,1-.18-2.9c1.51,0,1.5-2.6,1.5-2.6-.92-2.89,3.06-3.61,3.06-3.61,2.41-.72,1.27-1.59,1.27-1.59-1.57-1.44-.26-4-.26-4,1.44,1,5.38,0,5.38,0,3.54-3.75-.13-4.33-.13-4.33-2.23.72-2-2.38-2-2.38h-2.1c-6.56-8.29-1-9.77-1-9.77,6.07-2.91,3.11-4.73,3.11-4.73-.92-1,1.26-2.81,1.26-2.81l3.2,1.66a6.46,6.46,0,0,1,7.53,0Z"/><path class="cls-6" d="M45.08,50.62a38.88,38.88,0,0,0-5.54,11.83A7.15,7.15,0,0,1,40.92,66a.5.5,0,0,1-.73.57.43.43,0,0,1-.43,0,1.25,1.25,0,0,0-1.09-.1,32.74,32.74,0,0,0-.29,3.62.58.58,0,0,0,.29-.19.45.45,0,0,1,.73.12.51.51,0,0,1,.15.92.41.41,0,0,1,0,.11c-.22.87-.56,1.7-.74,2.57a7.49,7.49,0,0,1-.25,1c0,.43.1.85.16,1.28.14,1,.35,2.19.62,3.4.91-.34,2.19-1.29,1.9-4,0,0-2.54-3.37.53-4.52,0,0,3.84-.56,3.58-3.26A16.21,16.21,0,0,0,45.08,50.62Z"/><path class="cls-7" d="M91.91,96.39a28.22,28.22,0,0,0,6.38-13.67l-.16-.34A27.81,27.81,0,0,1,91.3,96.25c-8,8.5-18.46,7.48-20,7.3-.39,0-1.36,0-2.72-.13a1.15,1.15,0,0,0,1,.84,22.76,22.76,0,0,0,9.28-.41A24.54,24.54,0,0,0,88,99.91l.07,0A17.93,17.93,0,0,0,91,97.44c.34-.34.67-.69,1-1.06Z"/><path class="cls-8" d="M53.31,52.68c1,1.12,3,.77,4.42-.79s1.74-3.74.72-4.86-3-.77-4.42.79S52.29,51.55,53.31,52.68Z"/><path class="cls-8" d="M41.44,51.45a1.86,1.86,0,0,0-.44-2.6s-2.89,0-1.31,5.1c0,0,1.75,5.2,4.81,4.62,0,0,6.12,0,8.13,3.75a6.71,6.71,0,0,1,.79,3.37,7,7,0,0,1,4.55,0,9,9,0,0,1,3.15,2.21,15.9,15.9,0,0,1,2.74,3.47A9.43,9.43,0,0,0,65.22,74c1.4,1.89,4,3.78,6.65,3.23,1.27-.26,3.11-1.19,3.06-2.38s-2-2-2.09-2l-2.71-.1,3.28-1.48a4.13,4.13,0,0,1,3,1.75,4.59,4.59,0,0,1,.76,2.42,6.18,6.18,0,0,1-1,3.41A5.25,5.25,0,0,1,73.37,81a13.77,13.77,0,0,1-4.29.09,14.25,14.25,0,0,1-5.6-2,27,27,0,0,1-4.5-1,27.31,27.31,0,0,1-3.86-1.51,8,8,0,0,1-2.57-3.06,9.14,9.14,0,0,1-.88-4.48,9.43,9.43,0,0,1-3.32.09,10.67,10.67,0,0,1-5.08-2.3,15.51,15.51,0,0,1-3.41-4.33,30.54,30.54,0,0,1-2.62-5.39,13.65,13.65,0,0,1-.5-3.26,14.17,14.17,0,0,1,.91-5.5s2.51-3.36,5.19-.86C42.84,47.51,44.15,51.45,41.44,51.45Z"/><path class="cls-4" d="M59.62,35.32l-1.16.94S45.9,45.2,45.08,50.62"/><path class="cls-4" d="M98.13,82.38l.17-1.94C84.48,49.94,58.35,34.52,58.35,34.52"/><path class="cls-4" d="M58.55,34.52s-1.72,0-.09,1.74"/><path class="cls-4" d="M60.94,33.57s30.43,20.19,38.51,45"/><path class="cls-4" d="M14.68,80.68c-.3-.14-4.06-1.8-5.28-4.7a5,5,0,0,1,.52-4.83l4.62-7.22,1-1.83,1.77-6.59s3.64-6.5,5.35-7.9c0,0,.7-3.46,2.86-2.7a2.17,2.17,0,0,1,1.05,2.41,6.94,6.94,0,0,1-.81,2.38s-2.06,4.71-2.94,4.73l-1.3,7"/><polyline class="cls-4" points="21.48 61.39 21.15 62.35 21.13 62.41"/><path class="cls-4" d="M26.64,46.84s2.42-4,4.14-2.74c0,0,2.45-.12.19,5l0,.06-4.66,6.29-1.34,6.62,0,.06"/><polyline class="cls-4" points="26.56 47.54 26.59 47.33 26.64 46.84"/><line class="cls-4" x1="26.47" y1="48.34" x2="26.48" y2="48.31"/><polyline class="cls-4" points="24.91 62.15 24.92 62.09 25.09 60.61"/><path class="cls-4" d="M31,49.22a10,10,0,0,1,4-2.57c1.35-.57,2.26,1,2,2.29-.78,3.86-4.65,4.73-6.82,7.35a6.6,6.6,0,0,0-.63,1.31,24.63,24.63,0,0,0-1,5.58.37.37,0,0,1,0,.11"/><line class="cls-4" x1="30.95" y1="49.45" x2="30.98" y2="49.22"/><polyline class="cls-4" points="28.47 63.29 28.49 63.18 29.49 57.6 29.6 56.96"/><path class="cls-4" d="M39.65,62.58a7.66,7.66,0,0,0-.42-.75c-2.63-4.61-5.29-4.6-5.29-4.6-4.3-1.74-5.11,5.76-5.16,6.28v0a11.47,11.47,0,0,1,2.88,2.19.12.12,0,0,1,.05,0,.05.05,0,0,0,.07,0c.36-.12,1.4-3.12,1.4-3.12"/><path class="cls-4" d="M39.33,70h.3l.34,0s0,0,0-.08a3.47,3.47,0,0,0,.2-.5,5.88,5.88,0,0,0,.28-.94,7.77,7.77,0,0,0,.19-1.82"/><path class="cls-4" d="M32.7,59.83a2.86,2.86,0,0,0,.48,2.86h0a12.1,12.1,0,0,0,2.9,2.82c.05,3,1.35,4,2.44,4.32a.49.49,0,0,0,.16,0l.06,0"/><line class="cls-4" x1="33.18" y1="62.69" x2="32.71" y2="59.83"/><path class="cls-4" d="M38.18,68.9a.84.84,0,0,0,.59.55l.14,0s.86.24,1.29-.11a.57.57,0,0,0,.25-.46"/><path class="cls-4" d="M39.14,66.43a1.4,1.4,0,0,0-.74.37"/><path class="cls-4" d="M40.55,67.19a2.18,2.18,0,0,0-.54-.53"/><polyline class="cls-4" points="40.45 68.9 40.48 68.42 40.56 67.19"/><path class="cls-4" d="M34.37,73.42a2.05,2.05,0,0,0,1.26,1.66"/><path class="cls-4" d="M38.45,70.11a2.34,2.34,0,0,1-2-1.3s-2.25,2.62-2,4.6"/><path class="cls-4" d="M38.76,74l1.52-4.19-.28.1-.37.12-.25.06"/><path class="cls-4" d="M21,83.34a28.61,28.61,0,0,0,7.29-1.26l6.33-2.2c2.77.13,3.62-3.72,3.83-5"/><path class="cls-4" d="M18.8,82.75a3.59,3.59,0,0,0,2.1.59h0"/><line class="cls-4" x1="35.63" y1="75.08" x2="35.26" y2="75.23"/><path class="cls-4" d="M34.37,73.42h0a21.74,21.74,0,0,0-2.52-.71c-1.62-.34-3.66-.55-5,.12"/><polyline class="cls-4" points="33.86 73.4 34.37 73.42 34.37 73.42 34.4 73.42"/><path class="cls-4" d="M19.82,71.91c.11.4,1.46,6.09-3.05,7.57"/><path class="cls-4" d="M31.66,65.23s.05.22.12.58c.31,1.61,1.09,6.07.09,6.81"/><polyline class="cls-4" points="31.69 66.77 31.66 65.73 31.65 65.23"/><line class="cls-4" x1="31.87" y1="72.62" x2="31.85" y2="72.08"/><path class="cls-4" d="M20.58,62.48l.57-.13a14.38,14.38,0,0,1,3.77-.26h0a6.07,6.07,0,0,1,3.5,1.26.74.74,0,0,0,.13.12"/><path class="cls-4" d="M9,75.72,4,80.18s-6.5,18.08,9.51,16.09c0,0,3.94-10.68,8-12.61h0"/><polyline class="cls-4" points="9.62 76.12 9.4 75.98 8.98 75.72"/><polyline class="cls-4" points="21.41 83.66 21 83.4 20.91 83.34 20.89 83.33"/><path class="cls-8" d="M71.63,65.1c1,1.13,3,.77,4.42-.79s1.74-3.73.72-4.86-3-.77-4.42.8S70.61,64,71.63,65.1Z"/><path class="cls-9" d="M39.34,79.39s1.89,7.1,4.78,10.7"/></svg>